<svg width="145" height="40" viewBox="0 0 145 40" fill="none" xmlns="http://www.w3.org/2000/svg">
<path d="M50 29.1003H61.6354V26.4112H53.0376V21.4243H60.2897V18.7352H53.0376V14.1909H61.6354V11.5017H50V29.1003Z" fill="white"/>
<path d="M82.9145 17.2953C82.3602 16.7404 81.7104 16.3047 80.9685 15.9882C80.2265 15.6699 79.43 15.5116 78.5807 15.5116C77.6511 15.5116 76.7796 15.7073 75.9729 16.0988C75.1644 16.4902 74.4822 17.0196 73.9279 17.6885C73.3719 17.0196 72.6913 16.4902 71.8829 16.0988C71.0745 15.7073 70.2046 15.5116 69.2751 15.5116C68.4257 15.5116 67.6292 15.6716 66.8873 15.9882C66.1436 16.3047 65.4955 16.7404 64.9412 17.2953C64.3852 17.8484 63.9486 18.4969 63.6313 19.2373C63.3107 19.9793 63.1538 20.7742 63.1538 21.6201V29.1003H66.0925V21.5707C66.0925 21.0993 66.1743 20.655 66.3381 20.2397C66.5001 19.8245 66.7287 19.4636 67.022 19.1522C67.3154 18.8424 67.6565 18.599 68.0385 18.4203C68.4223 18.2399 68.835 18.1514 69.2768 18.1514C69.7185 18.1514 70.1296 18.2416 70.5133 18.4203C70.8971 18.6007 71.2348 18.8441 71.5298 19.1522C71.8232 19.4636 72.0517 19.8245 72.2155 20.2397C72.3775 20.655 72.4594 21.101 72.4594 21.5707V29.1003H75.3998V21.5707C75.3998 21.0993 75.4799 20.655 75.6437 20.2397C75.8074 19.8245 76.036 19.4636 76.3293 19.1522C76.6227 18.8424 76.9621 18.599 77.3458 18.4203C77.7296 18.2399 78.1423 18.1514 78.5824 18.1514C79.0224 18.1514 79.4369 18.2416 79.8206 18.4203C80.2027 18.6007 80.5421 18.8441 80.8371 19.1522C81.1305 19.4636 81.359 19.8245 81.5228 20.2397C81.6848 20.655 81.7667 21.101 81.7667 21.5707V29.1003H84.7054V21.6201C84.7054 20.7742 84.5468 19.9793 84.2278 19.2373C83.9106 18.4969 83.474 17.8484 82.9179 17.2953H82.9145Z" fill="white"/>
<path d="M100.055 19.7887C99.6776 18.9394 99.1642 18.1991 98.511 17.5642C97.8578 16.9277 97.0954 16.4273 96.2221 16.0613C95.3472 15.6937 94.4142 15.5099 93.4165 15.5099C92.4187 15.5099 91.4841 15.6937 90.6108 16.0613C89.7375 16.4256 88.9717 16.9277 88.3202 17.5642C87.6653 18.1991 87.1519 18.9394 86.7767 19.7887C86.4014 20.6346 86.2138 21.5384 86.2138 22.5017V33.5H89.1525V27.6111C89.6744 28.1813 90.3038 28.6374 91.0389 28.9795C91.774 29.3233 92.5654 29.4918 93.4148 29.4918C94.4108 29.4918 95.3455 29.3097 96.2204 28.9421C97.092 28.5744 97.8561 28.074 98.5093 27.4392C99.1625 26.8043 99.6776 26.0606 100.053 25.2147C100.426 24.3671 100.616 23.4616 100.616 22.5017C100.616 21.5418 100.428 20.6346 100.053 19.7887H100.055ZM97.3359 24.2003C97.1073 24.7296 96.7969 25.1909 96.4046 25.5806C96.014 25.9721 95.557 26.2818 95.0333 26.5116C94.508 26.7397 93.9554 26.852 93.367 26.852C92.7786 26.852 92.2243 26.738 91.7024 26.5116C91.1787 26.2835 90.7217 25.9721 90.3311 25.5806C89.9388 25.1926 89.6284 24.7313 89.3998 24.2003C89.1713 23.671 89.0553 23.1042 89.0553 22.5017C89.0553 21.8992 89.1696 21.3307 89.3998 20.8031C89.6284 20.2738 89.9388 19.8125 90.3311 19.4228C90.7217 19.0296 91.1787 18.7216 91.7024 18.4935C92.2243 18.2654 92.7786 18.1497 93.367 18.1497C93.9554 18.1497 94.508 18.2654 95.0333 18.4935C95.5552 18.7216 96.0123 19.0296 96.4046 19.4228C96.7969 19.8125 97.1073 20.2738 97.3359 20.8031C97.5644 21.3324 97.6787 21.8992 97.6787 22.5017C97.6787 23.1042 97.5644 23.6727 97.3359 24.2003Z" fill="white"/>
<path d="M115.97 19.7887C115.593 18.9394 115.079 18.1991 114.426 17.5642C113.773 16.9277 113.01 16.4273 112.137 16.0613C111.262 15.6937 110.329 15.5099 109.331 15.5099C108.334 15.5099 107.399 15.6937 106.528 16.0613C105.653 16.4256 104.888 16.9277 104.237 17.5642C103.585 18.1991 103.069 18.9394 102.693 19.7887C102.318 20.6346 102.131 21.5384 102.131 22.5017C102.131 23.465 102.318 24.3671 102.693 25.2147C103.069 26.0606 103.585 26.8043 104.237 27.4392C104.89 28.074 105.653 28.5744 106.528 28.9421C107.399 29.3097 108.335 29.4918 109.331 29.4918C110.23 29.4918 111.058 29.3012 111.817 28.9182C112.577 28.5353 113.217 28.0111 113.74 27.3405V29.102H116.531V22.5017C116.531 21.5401 116.343 20.6346 115.968 19.7887H115.97ZM113.35 24.2003C113.12 24.7296 112.809 25.1909 112.417 25.5806C112.028 25.9721 111.569 26.2818 111.046 26.5116C110.524 26.7397 109.968 26.852 109.379 26.852C108.791 26.852 108.237 26.738 107.716 26.5116C107.191 26.2835 106.736 25.9721 106.343 25.5806C105.951 25.1926 105.641 24.7313 105.414 24.2003C105.184 23.671 105.069 23.1042 105.069 22.5017C105.069 21.8992 105.182 21.3307 105.414 20.8031C105.642 20.2738 105.951 19.8125 106.343 19.4228C106.736 19.0296 107.191 18.7216 107.716 18.4935C108.238 18.2654 108.793 18.1497 109.379 18.1497C109.966 18.1497 110.524 18.2654 111.046 18.4935C111.568 18.7216 112.026 19.0296 112.417 19.4228C112.809 19.8125 113.12 20.2738 113.35 20.8031C113.578 21.3324 113.691 21.8992 113.691 22.5017C113.691 23.1042 113.578 23.6727 113.35 24.2003Z" fill="white"/>
<path d="M120.986 11.5017H118.047V23.1348C118.047 24.0148 118.214 24.8419 118.549 25.6163C118.883 26.3908 119.337 27.0613 119.91 27.6332C120.479 28.2051 121.155 28.6544 121.931 28.988C122.705 29.3233 123.536 29.4884 124.418 29.4884H124.784V26.8486H124.662C124.155 26.8486 123.677 26.7516 123.229 26.5559C122.779 26.3601 122.39 26.0997 122.064 25.7729C121.738 25.4479 121.476 25.0598 121.279 24.6139C121.085 24.1646 120.986 23.6897 120.986 23.1842V18.4407H124.783V15.8997H120.986V11.5V11.5017Z" fill="white"/>
<path d="M126.302 14.4393H128.92L126.302 15.9048V29.068H129.241V11.5017H126.302V14.4393Z" fill="white"/>
<path d="M134.282 29.1003H130.758L136.02 22.2073L131.197 15.9014H134.674L137.859 20.0457L139.056 18.4152L140.896 15.9014H144.374L140.192 21.3648C138.222 23.9433 136.252 26.5218 134.282 29.1003Z" fill="white"/>
<path d="M144.815 29.1003H141.287L139.113 26.2563C138.905 25.9806 138.697 25.7049 138.487 25.4308L140.249 23.1416C140.764 23.8105 141.279 24.4794 141.794 25.1483C142.8 26.4656 143.807 27.7847 144.813 29.102L144.815 29.1003Z" fill="white"/>
<path d="M8.81916 36.5753C8.88449 36.6188 8.94982 36.6644 9.01514 36.7059C12.1706 38.7885 15.9458 40 20 40C31.0284 40 40 31.0284 40 20C40 8.97159 31.0284 0 20 0C8.97159 0 0 8.97159 0 20C0 26.891 3.50391 32.9803 8.82114 36.5753H8.81916ZM20 37.0623C17.6007 37.0623 15.3202 36.5654 13.2456 35.6686C12.4201 35.3103 11.9608 34.4234 12.1172 33.5366C13.008 28.4569 15.2905 24.5135 18.0778 21.9222C20.0396 23.4208 22.2231 24.3848 24.4997 24.7352C29.5813 25.5191 34.0057 22.9754 36.1912 21.3897L37.0464 20.7701C36.6426 29.8228 29.1498 37.0623 20 37.0623ZM20.875 19.8654C22.2389 19.0973 23.6484 18.6202 25.0203 18.45C27.7343 18.1194 30.2227 18.9132 32.2182 19.9683C32.3943 20.0614 32.3943 20.3128 32.2182 20.4038C30.2801 21.4075 27.7007 22.2568 24.947 21.8331C23.5336 21.6154 22.1578 21.0868 20.8671 20.2811C20.7127 20.1861 20.7186 19.9525 20.877 19.8654H20.875ZM7.16619 8.77165C8.20944 7.5819 10.1653 8.07483 10.5355 9.61298C11.0977 11.9489 11.9568 14.1463 13.0912 16.12C13.5445 16.9098 14.6115 17.0821 15.3063 16.4921C15.6449 16.2051 15.825 15.7913 15.825 15.3736C15.825 15.1262 15.7636 14.8807 15.635 14.657C14.2176 12.1885 13.2871 9.30615 12.9051 6.23577C12.7744 5.21033 13.394 4.23637 14.372 3.89389C16.1378 3.27428 18.0303 2.93972 20.002 2.93972C29.2943 2.93972 36.8762 10.4068 37.0603 19.6555L36.2011 19.0221C33.5979 17.1078 29.4863 14.95 24.6659 15.538C22.4626 15.8072 20.3207 16.6327 18.3569 17.9452C17.8917 18.2579 17.3948 18.6262 16.8861 19.0498C16.2546 19.5744 15.7102 20.097 15.2509 20.5879C14.9421 20.9166 14.4116 21.4946 13.8236 22.2667C12.1548 24.4601 10.8582 27.0494 9.99901 29.8644C9.53182 31.3986 7.55419 31.7708 6.56439 30.5078C4.29575 27.6096 2.93972 23.9612 2.93972 20.004C2.93972 15.7082 4.53529 11.7767 7.16817 8.77561L7.16619 8.77165Z" fill="white"/>
</svg>
