<svg width="245" height="58" viewBox="0 0 245 58" fill="none" xmlns="http://www.w3.org/2000/svg">
<path d="M0 45.6732H30.0659V38.6949H7.84922V25.754H26.5886V18.7757H7.84922V6.98322H30.0659V0.00488281H0V45.6732Z" fill="white"/>
<path d="M85.0501 15.0388C83.6177 13.599 81.9386 12.4683 80.0214 11.6468C78.1043 10.8209 76.0461 10.4102 73.8514 10.4102C71.4494 10.4102 69.1974 10.9181 67.1128 11.9339C65.0238 12.9497 63.2609 14.3233 61.8285 16.0591C60.3918 14.3233 58.6333 12.9497 56.5443 11.9339C54.4553 10.9181 52.2076 10.4102 49.8057 10.4102C47.6109 10.4102 45.5528 10.8253 43.6356 11.6468C41.7141 12.4683 40.0394 13.599 38.607 15.0388C37.1703 16.4743 36.042 18.157 35.2223 20.0782C34.3937 22.0039 33.9883 24.0665 33.9883 26.2616V45.6728H41.5819V26.1335C41.5819 24.9101 41.7934 23.7573 42.2165 22.6797C42.6352 21.602 43.2258 20.6657 43.9838 19.8574C44.7418 19.0536 45.6233 18.422 46.6105 17.9583C47.6021 17.4901 48.6686 17.2604 49.8101 17.2604C50.9516 17.2604 52.0137 17.4945 53.0053 17.9583C53.9969 18.4264 54.8696 19.058 55.632 19.8574C56.3901 20.6657 56.9806 21.602 57.4037 22.6797C57.8224 23.7573 58.034 24.9145 58.034 26.1335V45.6728H65.632V26.1335C65.632 24.9101 65.8391 23.7573 66.2622 22.6797C66.6853 21.602 67.2758 20.6657 68.0339 19.8574C68.7919 19.0536 69.6689 18.422 70.6606 17.9583C71.6522 17.4901 72.7187 17.2604 73.8558 17.2604C74.9928 17.2604 76.0638 17.4945 77.0554 17.9583C78.0426 18.4264 78.9197 19.058 79.6821 19.8574C80.4401 20.6657 81.0307 21.602 81.4538 22.6797C81.8725 23.7573 82.084 24.9145 82.084 26.1335V45.6728H89.6776V26.2616C89.6776 24.0665 89.2678 22.0039 88.4436 20.0782C87.6239 18.157 86.4956 16.4743 85.0589 15.0388H85.0501Z" fill="white"/>
<path d="M129.343 21.5097C128.369 19.3058 127.042 17.3846 125.354 15.7372C123.666 14.0853 121.696 12.7868 119.44 11.8372C117.179 10.8832 114.768 10.4062 112.19 10.4062C109.612 10.4062 107.196 10.8832 104.94 11.8372C102.684 12.7824 100.705 14.0853 99.0212 15.7372C97.3288 17.3846 96.0022 19.3058 95.0326 21.5097C94.063 23.7048 93.5782 26.0501 93.5782 28.5499V57.0904H101.172V41.8088C102.52 43.2883 104.147 44.472 106.046 45.3597C107.946 46.2519 109.991 46.6892 112.185 46.6892C114.759 46.6892 117.174 46.2166 119.435 45.2626C121.687 44.3086 123.662 43.0101 125.35 41.3627C127.038 39.7152 128.369 37.7852 129.338 35.5901C130.303 33.3906 130.793 31.0409 130.793 28.5499C130.793 26.0589 130.308 23.7048 129.338 21.5097H129.343ZM122.318 32.9577C121.727 34.3313 120.925 35.5283 119.911 36.5397C118.902 37.5555 117.721 38.3593 116.368 38.9556C115.01 39.5474 113.583 39.8389 112.062 39.8389C110.542 39.8389 109.109 39.543 107.761 38.9556C106.408 38.3637 105.226 37.5555 104.217 36.5397C103.204 35.5327 102.401 34.3357 101.811 32.9577C101.22 31.5842 100.921 30.1134 100.921 28.5499C100.921 26.9864 101.216 25.5113 101.811 24.1421C102.401 22.7685 103.204 21.5716 104.217 20.5602C105.226 19.5399 106.408 18.7405 107.761 18.1487C109.109 17.5568 110.542 17.2565 112.062 17.2565C113.583 17.2565 115.01 17.5568 116.368 18.1487C117.716 18.7405 118.898 19.5399 119.911 20.5602C120.925 21.5716 121.727 22.7685 122.318 24.1421C122.908 25.5157 123.203 26.9864 123.203 28.5499C123.203 30.1134 122.908 31.5886 122.318 32.9577Z" fill="white"/>
<path d="M170.467 21.5097C169.493 19.3058 168.166 17.3846 166.479 15.7372C164.791 14.0853 162.821 12.7868 160.564 11.8372C158.303 10.8832 155.892 10.4062 153.314 10.4062C150.736 10.4062 148.321 10.8832 146.069 11.8372C143.808 12.7824 141.833 14.0853 140.15 15.7372C138.466 17.3846 137.131 19.3058 136.161 21.5097C135.192 23.7048 134.707 26.0501 134.707 28.5499C134.707 31.0497 135.192 33.3906 136.161 35.5901C137.131 37.7852 138.466 39.7152 140.15 41.3627C141.838 43.0101 143.808 44.3086 146.069 45.2626C148.321 46.2166 150.74 46.6892 153.314 46.6892C155.637 46.6892 157.774 46.1945 159.735 45.2007C161.701 44.207 163.354 42.8467 164.707 41.1065V45.6778H171.917V28.5499C171.917 26.0545 171.432 23.7048 170.463 21.5097H170.467ZM163.698 32.9577C163.103 34.3313 162.3 35.5283 161.287 36.5397C160.282 37.5555 159.096 38.3593 157.743 38.9556C156.395 39.5474 154.958 39.8389 153.438 39.8389C151.917 39.8389 150.485 39.543 149.141 38.9556C147.783 38.3637 146.606 37.5555 145.593 36.5397C144.579 35.5327 143.777 34.3357 143.191 32.9577C142.596 31.5842 142.301 30.1134 142.301 28.5499C142.301 26.9864 142.592 25.5113 143.191 24.1421C143.781 22.7685 144.579 21.5716 145.593 20.5602C146.606 19.5399 147.783 18.7405 149.141 18.1487C150.489 17.5568 151.922 17.2565 153.438 17.2565C154.954 17.2565 156.395 17.5568 157.743 18.1487C159.092 18.7405 160.278 19.5399 161.287 20.5602C162.3 21.5716 163.103 22.7685 163.698 24.1421C164.288 25.5157 164.579 26.9864 164.579 28.5499C164.579 30.1134 164.288 31.5886 163.698 32.9577Z" fill="white"/>
<path d="M183.428 0.0044075H175.834V30.1923C175.834 32.4758 176.266 34.6222 177.13 36.6318C177.994 38.6414 179.166 40.3816 180.647 41.8656C182.119 43.3496 183.864 44.5156 185.869 45.3812C187.87 46.2513 190.016 46.6797 192.295 46.6797H193.242V39.8295H192.925C191.616 39.8295 190.382 39.5777 189.223 39.0698C188.06 38.5619 187.055 37.8862 186.213 37.0382C185.371 36.1946 184.692 35.1876 184.186 34.0304C183.683 32.8644 183.428 31.6322 183.428 30.3204V18.0112H193.238V11.4171H183.428V0V0.0044075Z" fill="white"/>
<path d="M197.164 7.18983V7.61383V7.62708H203.929L197.164 11.4298V45.5883H204.758V11.3371V7.61383V7.18983V0.00390625H197.164V7.18983Z" fill="white"/>
<path d="M217.785 45.6731H208.68L222.276 27.7856L222.047 27.4853L209.812 11.4219H218.799L227.027 22.1765L230.121 17.9453L234.876 11.4219H243.862L234.731 23.3999L233.056 25.5994C227.966 32.2906 222.875 38.9819 217.785 45.6731Z" fill="white"/>
<path d="M244.999 45.6727H235.885L230.266 38.2925C229.728 37.577 229.191 36.8615 228.648 36.1504L233.201 30.21C234.532 31.9457 235.863 33.6815 237.194 35.4172C239.794 38.8357 242.394 42.2586 244.995 45.6771L244.999 45.6727Z" fill="white"/>
</svg>
